<?xml version="1.0" encoding="UTF-8"?><svg id="Layer_1" xmlns="http://www.w3.org/2000/svg" viewBox="0 0 530.68 119.19"><defs><style>.cls-1{fill:#13343b;}.cls-2{fill:#20808d;}</style></defs><path class="cls-1" d="M261.27,35.87h4.05v8.35h-5.25c-4.11,0-7.18.99-9.21,2.97-2.02,1.98-3.04,5.23-3.04,9.75v27.38h-8.29v-48.26h8.29v7.7c0,.43.22.65.65.65.24,0,.43-.06.55-.19.13-.13.24-.37.37-.74,1.6-5.07,5.56-7.61,11.88-7.61h0ZM315.4,46.22c2.18,3.87,3.27,8.52,3.27,13.97s-1.09,10.1-3.27,13.97c-2.18,3.87-5,6.76-8.47,8.68-3.47,1.92-7.2,2.88-11.18,2.88-7.86,0-13.38-3.16-16.57-9.47-.24-.49-.55-.74-.92-.74s-.55.19-.55.56v25.89h-8.29V36.06h8.29v8.26c0,.37.18.56.55.56s.67-.25.92-.74c3.19-6.31,8.71-9.47,16.57-9.47,3.99,0,7.72.96,11.18,2.88,3.47,1.92,6.29,4.81,8.47,8.68ZM310.38,60.18c0-5.69-1.52-10.13-4.56-13.32-3.04-3.18-7.04-4.78-12.01-4.78s-8.98,1.59-12.02,4.78c-3.04,3.19-4.15,7.63-4.15,13.32s1.11,10.13,4.15,13.32c3.04,3.19,7.05,4.78,12.02,4.78s8.98-1.59,12.01-4.78c3.04-3.18,4.56-7.63,4.56-13.32ZM178.49,46.29c2.18,3.87,3.27,8.52,3.27,13.97s-1.09,10.1-3.27,13.97-5,6.76-8.47,8.68c-3.47,1.92-7.2,2.88-11.19,2.88-7.86,0-13.38-3.16-16.57-9.47-.24-.49-.55-.74-.92-.74s-.55.19-.55.56v25.89h-8.28V36.13h8.29v8.26c0,.37.18.56.55.56s.67-.25.92-.74c3.19-6.31,8.71-9.47,16.57-9.47,3.99,0,7.72.96,11.18,2.88,3.47,1.92,6.29,4.81,8.47,8.68h0ZM173.48,60.26c0-5.69-1.52-10.13-4.55-13.32-3.04-3.18-7.04-4.78-12.02-4.78s-8.98,1.59-12.02,4.78c-3.04,3.19-4.15,7.63-4.15,13.32s1.11,10.13,4.15,13.32c3.04,3.19,7.04,4.78,12.02,4.78s8.98-1.59,12.02-4.78c3.04-3.18,4.55-7.63,4.55-13.32ZM224.3,68.99h8.75c-1.17,4.52-3.55,8.43-7.13,11.74-3.59,3.31-8.73,4.96-15.42,4.96-5.04,0-9.46-1.04-13.3-3.11-3.84-2.07-6.8-5.02-8.89-8.86-2.09-3.83-3.13-8.35-3.13-13.55s1.02-9.71,3.04-13.55c2.02-3.83,4.86-6.79,8.52-8.86,3.65-2.07,7.93-3.11,12.84-3.11s8.98,1.02,12.39,3.06c3.41,2.04,5.95,4.75,7.64,8.12,1.69,3.38,2.53,7.07,2.53,11.09v5.57h-38.2c.3,4.82,1.92,8.66,4.83,11.51,2.91,2.84,6.83,4.27,11.74,4.27,3.99,0,7.05-.82,9.16-2.46,2.12-1.64,3.66-3.91,4.65-6.82ZM194.01,55.54h28.91c0-4.21-1.07-7.5-3.22-9.89-2.15-2.38-5.52-3.57-10.12-3.57-4.3,0-7.81,1.16-10.54,3.48-2.73,2.32-4.4,5.65-5.02,9.97h0ZM325.22,84.31h8.29V17.49h-8.29v66.82h0ZM440.18,30.79h9.68v-10.45h-9.68v10.45ZM474.32,77.12c-1.5.15-2.41.23-2.72.23-.43,0-.77-.13-1.02-.37-.24-.25-.37-.58-.37-1.02,0-.31.08-1.22.23-2.74.15-1.51.23-3.85.23-7v-23.09h11.82l-2.33-7.07h-9.49v-13h-8.28v12.99h-9.01v7.07h9.01v25.41c0,5.32,1.29,9.28,3.87,11.88,2.58,2.6,6.51,3.9,11.79,3.9h6.45v-7.42h-3.23c-3.13,0-5.45.08-6.95.23h0ZM522.8,36.05l-13.72,40.49c-.18.5-.48,1.15-1.42,1.15s-1.23-.65-1.42-1.15l-13.72-40.49h-8.45l15.89,48.26h5.61c.37,0,.65.03.83.09.18.06.34.21.46.47.25.37.21.93-.09,1.67l-2.58,7.05c-.37.93-1.07,1.4-2.12,1.4-.37,0-1.23-.08-2.58-.23-1.35-.15-3.1-.23-5.25-.23h-6.72v7.42h8.84c5.16,0,8.26-.88,10.93-2.64,2.67-1.76,4.74-4.87,6.22-9.33l17.16-52.07v-1.85h-7.88ZM413.12,54.06l-12.98-18.01h-9.11v1.85l15.55,20.88-18.96,23.67v1.85h9.3l15.1-19.39,14.09,19.39h8.93v-1.85l-16.48-22.27,17.86-22.18v-1.95h-9.3l-13.99,18.01h0ZM441.07,84.31h8.28v-48.25h-8.28v48.26h0ZM387.99,68.99c-1.17,4.52-3.54,8.43-7.13,11.74-3.59,3.31-8.73,4.96-15.42,4.96-5.03,0-9.46-1.04-13.3-3.11-3.83-2.07-6.8-5.02-8.88-8.86-2.09-3.83-3.13-8.35-3.13-13.55s1.02-9.71,3.04-13.55c2.03-3.83,4.86-6.79,8.52-8.86,3.65-2.07,7.93-3.11,12.84-3.11s8.98,1.02,12.38,3.06c3.41,2.04,5.95,4.75,7.64,8.12,1.69,3.38,2.53,7.07,2.53,11.09v5.57h-38.2c.3,4.82,1.92,8.66,4.83,11.51,2.91,2.84,6.83,4.27,11.74,4.27,3.99,0,7.05-.82,9.16-2.46,2.12-1.64,3.66-3.91,4.65-6.82h8.75ZM348.96,55.54h28.91c0-4.21-1.07-7.5-3.22-9.89-2.15-2.38-5.52-3.57-10.12-3.57-4.3,0-7.81,1.16-10.54,3.48-2.73,2.32-4.4,5.65-5.02,9.97h0Z"/><path class="cls-2" d="M102.42,35.7h-14.07V0l-34.28,31.97V0h-5.71v31.97L14.07,0v35.7H0v51.42h14.02v32.06l34.33-30.55v30.55h5.71v-30.55l34.33,30.55v-32.06h14.02v-51.42ZM82.64,13.13v22.52h-24.18l24.18-22.52ZM19.79,13.13l24.18,22.52h-24.18V13.13ZM5.71,81.41v-40h38.16l-29.84,27.44v12.56H5.71h0ZM19.74,71.35l28.62-26.3v35.94l-28.62,25.45v-35.13h0v.05ZM82.69,106.44l-28.62-25.45v-35.94l28.62,26.3v35.13h0v-.05ZM96.71,81.41h-8.31v-12.56l-29.84-27.44h38.16v40Z"/></svg>